<svg t="1587371931383" class="icon" viewBox="0 0 1024 1024" version="1.1" xmlns="http://www.w3.org/2000/svg" p-id="2748" width="128" height="128"><path d="M1024 870.4h-35.2c0-176-137.6-328-307.2-350.4v-33.6c14.4 1.6 36.8 4.8 51.2 6.4 51.2-35.2 84.8-94.4 84.8-160 0-84.8-52.8-155.2-128-182.4v-11.2h60.8c62.4 41.6 102.4 113.6 102.4 193.6 0 70.4-30.4 132.8-78.4 176 144 54.4 249.6 196.8 249.6 361.6z m-510.4-328c169.6 46.4 297.6 206.4 297.6 395.2 0 6.4 0 14.4-1.6 22.4H776c0-6.4 1.6-12.8 1.6-22.4C777.6 736 608 563.2 408 563.2S36.8 734.4 36.8 936c0 6.4 0 14.4 1.6 22.4h-3.2c-14.4 0-33.6-0.8-33.6-0.8-1.6-8-1.6-12-1.6-21.6 0-188.8 124.8-345.6 297.6-395.2-75.2-40-126.4-118.4-126.4-209.6 0-131.2 105.6-238.4 235.2-238.4S640 201.6 640 332.8c-1.6 91.2-51.2 168-126.4 209.6zM404.8 131.2c-107.2 0-200 96-200 201.6s94.4 201.6 200 201.6 200-96 200-201.6-94.4-201.6-200-201.6z" p-id="2749" fill="#ffffff"></path></svg>