<svg t="1587371825958" class="icon" viewBox="0 0 1024 1024" version="1.1" xmlns="http://www.w3.org/2000/svg" p-id="1904" width="128" height="128"><path d="M990.326971 243.396993L904.467974 77.981998A156.277995 156.277995 0 0 0 776.270977 0H248.516993A157.813995 157.813995 0 0 0 120.379996 77.193998l-85.995997 161.869995A336.06899 336.06899 0 0 0 0.02 376.517989v25.205999a40.211999 40.211999 0 0 0 39.955999 40.369999h0.57a40.211999 40.211999 0 0 0 40.093999-40.369999v-24.811999h861.262974v543.309984a21.523999 21.523999 0 0 1-21.660999 21.661999H103.187997a22.035999 22.035999 0 0 1-21.857999-21.857999v-38.202999a40.211999 40.211999 0 0 0-39.975999-40.369999h-0.57a40.211999 40.211999 0 0 0-40.074999 40.369999v38.989999A102.931997 102.931997 0 0 0 103.719997 1023.99997h817.093976A103.285997 103.285997 0 0 0 1023.99997 920.811973V380.849989a335.91099 335.91099 0 0 0-33.672999-137.451996z m-64.393998 52.971998H98.225997a133.907996 133.907996 0 0 1 8.034-18.903999l86.015997-161.870995a74.712998 74.712998 0 0 1 56.221999-34.264999h528.363984a74.593998 74.593998 0 0 1 56.122999 34.067999l86.054997 165.611995 0.197 0.197a139.145996 139.145996 0 0 1 6.696 15.162999z" p-id="1905" fill="#ffffff"></path><path d="M41.727999 600.221982h333.46999a40.211999 40.211999 0 0 0 40.092999-40.172998 37.789999 37.789999 0 0 0-10.81-27.766 41.097999 41.097999 0 0 0-29.539999-12.799999H41.748999a40.841999 40.841999 0 0 0-28.632999 11.814999 40.427999 40.427999 0 0 0 28.612999 68.923998z m0 158.522996h188.927994a40.171999 40.171999 0 0 0 28.337999-11.619 40.644999 40.644999 0 0 0 11.815-28.553999 38.241999 38.241999 0 0 0-10.713-27.962999 41.353999 41.353999 0 0 0-29.537999-12.406H41.629999a40.269999 40.269999 0 0 0 0.098 80.541998z" p-id="1906" fill="#ffffff"></path><path d="M560.206984 597.069983a40.979999 40.979999 0 0 0-28.317 11.619999 40.979999 40.979999 0 0 0-11.815999 28.749999 40.349999 40.349999 0 0 0 40.309999 40.171999H723.199979l-38.438999 38.399999a41.156999 41.156999 0 0 0-11.953 28.750999 40.486999 40.486999 0 0 0 11.914 28.553999 41.353999 41.353999 0 0 0 28.848999 11.815h0.63a37.690999 37.690999 0 0 0 27.765999-12.012l107.499997-107.519996a36.765999 36.765999 0 0 0 5.12-5.908 9.098 9.098 0 0 0 1.379-1.969l0.394-0.394 0.787-1.378c0-0.197 0.197-0.394 0.197-0.591a10.28 10.28 0 0 0 1.773-4.135 11.815 11.815 0 0 0 0.984-4.727 15.892 15.892 0 0 0 1.576-8.467 27.923999 27.923999 0 0 0-0.985-8.467999 20.439999 20.439999 0 0 0-0.59-2.363 51.813998 51.813998 0 0 0-0.591-2.56v-0.985l-0.985-1.969a2.087 2.087 0 0 1-0.394-0.984v-2.364l-0.788-0.787v-1.379l-2.56-2.56c-0.197-0.197-0.393-0.59-0.59-0.787a19.239999 19.239999 0 0 0-4.53-4.923L741.887978 501.562985a40.112999 40.112999 0 0 0-28.592999-12.011999 40.624999 40.624999 0 0 0-28.572999 11.814999 41.353999 41.353999 0 0 0-11.914 29.538999 38.989999 38.989999 0 0 0 12.012 27.766l38.379999 38.399999H560.147984z" p-id="1907" fill="#ffffff"></path></svg>