<svg t="1587372254393" class="icon" viewBox="0 0 1024 1024" version="1.1" xmlns="http://www.w3.org/2000/svg" p-id="4427" width="128" height="128"><path d="M242.942067 194.079077a47.093438 47.093438 0 0 1-27.349295-6.508255 37.14824 37.14824 0 0 1-13.016509-15.649062 51.700404 51.700404 0 0 1-5.191978-23.473592V62.451456a59.232429 59.232429 0 0 1 9.798945-37.14824 72.468318 72.468318 0 0 1 21.499178-18.866625 74.588985 74.588985 0 0 1 31.224997-6.508255h504.06066a74.588985 74.588985 0 0 1 31.224997 6.508255 72.468318 72.468318 0 0 1 21.499178 18.866625 59.232429 59.232429 0 0 1 9.798945 37.14824V148.448168a51.700404 51.700404 0 0 1-5.191978 23.473592 38.903275 38.903275 0 0 1-12.358371 15.649062 43.875874 43.875874 0 0 1-26.691157 6.508255z m678.613511 726.803845a126.874401 126.874401 0 0 1-10.383957 52.066037 101.426394 101.426394 0 0 1-28.007432 35.173825A82.706022 82.706022 0 0 1 829.123738 1023.771845H196.141135a82.267263 82.267263 0 0 1-54.698589-15.649061 104.570832 104.570832 0 0 1-27.349294-35.173825 143.181601 143.181601 0 0 1-11.700233-52.066037V433.714473a94.260002 94.260002 0 0 1 15.649061-61.206844q15.649062-18.208488 28.665571-31.224997l92.504967-85.996712h563.951228L877.387199 341.282632q13.016509 13.016509 28.66557 31.224997a94.260002 94.260002 0 0 1 15.649062 61.206844z m-203.218421-336.381697h-136.746473V446.438476H442.211659v138.062749h-136.746472v139.379025h136.746472v136.746472h139.379025v-136.746472h136.746473z" p-id="4428" fill="#ffffff"></path></svg>