<svg t="1587372606157" class="icon" viewBox="0 0 1253 1024" version="1.1" xmlns="http://www.w3.org/2000/svg" p-id="9251" width="128" height="128"><path d="M819.478261 960v-105.73913a152.347826 152.347826 0 0 1 58.434782-118.956522 187.826087 187.826087 0 0 1 187.130435-176.695652h24.347826a153.043478 153.043478 0 0 1 25.043479 0V153.73913A153.73913 153.73913 0 0 0 961.391304 0H153.73913A153.73913 153.73913 0 0 0 0 153.73913v716.52174a153.73913 153.73913 0 0 0 153.73913 153.73913H834.782609a151.652174 151.652174 0 0 1-15.304348-64z m-467.478261-245.565217c0-35.478261 63.304348-64.695652 149.565217-73.739131V619.130435a213.565217 213.565217 0 0 1-80-91.826087c-13.217391-6.26087-22.26087-22.956522-29.913043-51.478261a38.956522 38.956522 0 0 1 11.826087-42.434783A147.478261 147.478261 0 0 1 556.521739 278.26087a144 144 0 0 1 150.956522 150.956521 34.782609 34.782609 0 0 1 15.304348 41.043479c-6.956522 26.434783-16 41.043478-28.521739 46.608695A214.956522 214.956522 0 0 1 612.173913 619.130435v21.565217c86.956522 10.434783 153.043478 38.26087 153.043478 73.739131s-413.217391 41.73913-413.217391 0z" fill="#ffffff" p-id="9252"></path><path d="M1252.173913 841.73913v105.739131a75.130435 75.130435 0 0 1-74.434783 75.130435h-213.565217a75.130435 75.130435 0 0 1-74.434783-75.130435V841.73913m288-74.434782h-213.565217m9.73913 172.521739h198.26087v-90.434783H973.913043z" fill="#ffffff" p-id="9253"></path><path d="M1152.695652 849.391304h-164.173913a41.043478 41.043478 0 0 1-41.73913-41.043478v-74.434783a111.304348 111.304348 0 0 1 111.304348-111.304347h24.347826a111.304348 111.304348 0 0 1 111.304347 111.304347v74.434783a41.043478 41.043478 0 0 1-41.043478 41.043478zM1113.043478 767.304348v-33.391305a28.521739 28.521739 0 0 0-29.217391-28.521739h-24.347826a28.521739 28.521739 0 0 0-28.521739 28.521739v33.391305" fill="#ffffff" p-id="9254"></path><path d="M1193.73913 770.782609v-36.869566a111.304348 111.304348 0 0 0-111.304347-111.304347h-24.347826a111.304348 111.304348 0 0 0-111.304348 111.304347v36.869566a69.565217 69.565217 0 0 0-57.043479 69.565217v105.739131a75.130435 75.130435 0 0 0 74.434783 75.130434h213.565217A75.130435 75.130435 0 0 0 1252.173913 947.478261V841.73913a69.565217 69.565217 0 0 0-58.434783-70.956521z m-164.173913-3.478261v-33.391305a28.521739 28.521739 0 0 1 28.52174-28.521739h24.347826a28.521739 28.521739 0 0 1 29.217391 28.521739v33.391305m58.434783 172.521739H973.913043v-90.434783h198.26087z" fill="#ffffff" p-id="9255"></path></svg>