<svg t="1587372352355" class="icon" viewBox="0 0 1075 1024" version="1.1" xmlns="http://www.w3.org/2000/svg" p-id="6489" width="128" height="128"><path d="M832 113.230769H448v-24.615384h393.846154l4.923077 9.846153v14.769231z" fill="#ffffff" p-id="6490"></path><path d="M896 964.923077H467.692308v-39.384615h428.307692c59.076923 0 108.307692-39.384615 108.307692-93.538462V226.461538c0-29.538462-19.692308-59.076923-49.230769-78.76923l-59.076923-34.461539h78.769231c14.769231 0 29.538462-9.846154 29.538461-24.615384V59.076923c0-9.846154-14.769231-24.615385-29.538461-24.615385H320c-14.769231 0-29.538462 9.846154-29.538462 24.615385v29.538462c0 9.846154 14.769231 24.615385 29.538462 24.615384h78.769231l-59.076923 34.461539c-29.538462 19.692308-49.230769 44.307692-49.23077 78.76923v443.076924h-39.384615v-443.076924c0-29.538462 9.846154-59.076923 34.461539-83.692307-19.692308-9.846154-34.461538-29.538462-34.461539-49.230769V59.076923c0-34.461538 29.538462-59.076923 64-59.076923h654.769231c34.461538 0 64 24.615385 64 59.076923v29.538462c0 24.615385-14.769231 39.384615-34.461539 54.153846 19.692308 24.615385 34.461538 54.153846 34.461539 83.692307v610.461539c4.923077 68.923077-59.076923 128-137.846154 128z" fill="#ffffff" p-id="6491"></path><path d="M590.769231 413.538462l68.923077 88.615384h-39.384616l-49.230769-68.923077-29.538461 24.615385v44.307692h-34.461539V290.461538h34.461539v132.923077l68.923076-68.923077h39.384616L590.769231 413.538462zM787.692308 354.461538h29.538461v128c4.923077 54.153846-24.615385 78.769231-78.769231 73.846154-34.461538 0-59.076923-14.769231-64-39.384615h29.538462c4.923077 9.846154 19.692308 19.692308 39.384615 19.692308 29.538462 0 44.307692-14.769231 44.307693-44.307693v-19.692307c-9.846154 14.769231-24.615385 24.615385-54.153846 24.615384-44.307692 0-64-24.615385-64-73.846154s24.615385-73.846154 68.923076-73.846153c24.615385 0 39.384615 9.846154 49.23077 24.615384v-19.692308z m0 73.846154V413.538462c0-24.615385-14.769231-39.384615-39.384616-39.384616-29.538462 0-44.307692 19.692308-44.307692 49.230769 0 34.461538 14.769231 49.230769 44.307692 49.23077 24.615385 0 39.384615-14.769231 39.384616-44.307693z" fill="#ffffff" p-id="6492"></path><path d="M457.846154 694.153846H54.153846c-19.692308 0-39.384615-14.769231-39.384615-39.384615v-29.538462c0-19.692308 14.769231-39.384615 39.384615-39.384615h398.769231c19.692308 0 39.384615 14.769231 39.384615 39.384615v34.461539c0 19.692308-14.769231 34.461538-34.461538 34.461538z m-403.692308-68.923077v29.538462h403.692308v-29.538462H54.153846z" fill="#ffffff" p-id="6493"></path><path d="M452.923077 1024h-393.846154c-24.615385 0-44.307692-19.692308-44.307692-39.384615v-300.307693c0-24.615385 19.692308-39.384615 44.307692-39.384615h393.846154c24.615385 0 44.307692 19.692308 44.307692 39.384615v300.307693c-4.923077 19.692308-24.615385 39.384615-44.307692 39.384615z m-393.846154-344.615385c-4.923077 0-4.923077 0-4.923077 4.923077v300.307693c0 4.923077 0 4.923077 4.923077 4.923077h393.846154c4.923077 0 4.923077 0 4.923077-4.923077v-300.307693c0-4.923077 0-4.923077-4.923077-4.923077h-393.846154z" fill="#ffffff" p-id="6494"></path><path d="M315.076923 900.923077h-24.615385v-64c0-19.692308-4.923077-29.538462-19.692307-29.538462-14.769231 0-24.615385 9.846154-24.615385 29.538462v59.076923h-24.615384v-64c0-19.692308-4.923077-29.538462-19.692308-29.538462-14.769231 0-24.615385 9.846154-24.615385 29.538462v59.076923h-24.615384v-103.384615h19.692307v19.692307c9.846154-14.769231 19.692308-19.692308 34.461539-19.692307 19.692308 0 29.538462 9.846154 34.461538 24.615384 4.923077-14.769231 19.692308-24.615385 34.461539-24.615384 24.615385 0 34.461538 14.769231 34.461538 44.307692v68.923077zM320 787.692308l14.769231-4.923077c0 9.846154 9.846154 14.769231 19.692307 14.769231s14.769231-4.923077 14.769231-14.769231c0-9.846154-4.923077-14.769231-19.692307-14.769231h-9.846154V758.153846H344.615385c14.769231 0 19.692308-4.923077 19.692307-14.769231 0-9.846154-4.923077-14.769231-14.76923-14.76923-9.846154 0-14.769231 4.923077-14.769231 14.76923l-9.846154-4.923077c4.923077-14.769231 14.769231-19.692308 29.538461-19.692307s24.615385 9.846154 24.615385 19.692307-4.923077 14.769231-14.769231 19.692308c9.846154 0 19.692308 9.846154 19.692308 19.692308 0 14.769231-9.846154 24.615385-29.538462 24.615384-19.692308 4.923077-29.538462 0-34.461538-14.76923z" fill="#ffffff" p-id="6495"></path></svg>