<?xml version="1.0" standalone="no"?><!DOCTYPE svg PUBLIC "-//W3C//DTD SVG 1.1//EN" "http://www.w3.org/Graphics/SVG/1.1/DTD/svg11.dtd"><svg t="1590114470784" class="icon" viewBox="0 0 1024 1024" version="1.1" xmlns="http://www.w3.org/2000/svg" p-id="1360" xmlns:xlink="http://www.w3.org/1999/xlink" width="200" height="200"><defs><style type="text/css"></style></defs><path d="M800.4 580.4H634.2V952h293.3V717.3L800.4 580.4z m19.6 74.9l32.7 42.5H820v-42.5z m68.4 257.6H673.3V619.6h107.6v117.3h107.6v176zM487.6 391.7c-47.7 0-86.4-42.4-86.4-94.8H368c0 71 53.6 128.6 119.7 128.6s119.7-57.6 119.7-128.6H574c0 52.3-38.7 94.8-86.4 94.8zM96.4 952h39.1c0-194.4 157.6-352 352-352 41.2 0 80.6 7.1 117.3 20.1v-41.3c-37-11.6-76.5-17.9-117.3-17.9C271.6 560.9 96.4 736 96.4 952zM732 316.4C732 181.4 622.6 72 487.6 72S243.2 181.4 243.2 316.4s109.4 244.4 244.4 244.4c135 0.1 244.4-109.4 244.4-244.4zM487.6 521.8c-113.4 0-205.3-91.9-205.3-205.3s91.9-205.3 205.3-205.3 205.3 91.9 205.3 205.3c0 113.3-91.9 205.3-205.3 205.3z" p-id="1361" fill="#BFCBD9"></path></svg>