<svg t="1587372537465" class="icon" viewBox="0 0 1024 1024" version="1.1" xmlns="http://www.w3.org/2000/svg" p-id="8722" width="128" height="128"><path d="M1021.907 853.933c0 103.465-256.689 157.595-510.244 157.595-253.549 0-510.224-54.13-510.224-157.595 0-91.81 197.719-130.075 282.732-142.27 12.62-1.765 24.357 6.97 26.167 19.61 1.817 12.635-6.965 24.35-19.612 26.165-177.052 25.39-243.042 72.665-243.042 96.5 0 45.405 180.75 111.345 463.979 111.345 283.249 0 463.994-65.94 463.994-111.345 0-24.02-66.62-71.55-245.399-96.83-12.64-1.79-21.45-13.5-19.66-26.13 1.795-12.64 13.535-21.36 26.13-19.66 85.745 12.13 285.174 50.3 285.174 142.62l0.005-0.005zM511.664 56.245c142.295 0 258.044 115.752 258.044 258.027 0 197.142-199.849 418.636-258.237 479.126-58.545-59.4-257.829-276.474-257.829-479.126 0-142.275 115.747-258.027 258.019-258.027h0.003z m-15.79 786.708l15.987 14.93 15.797-15.125c11.765-11.28 288.294-278.984 288.294-528.479 0-167.78-136.505-304.274-304.292-304.274-167.772 0-304.264 136.492-304.264 304.274 0.002 256.219 276.702 517.669 288.479 528.679l-0.001-0.005z" fill="#ffffff" p-id="8723"></path><path d="M511.652 178.483c-79.437 0-144.062 64.635-144.062 144.082 0 79.447 64.625 144.087 144.062 144.087 79.467 0 144.107-64.64 144.107-144.087 0-79.452-64.645-144.082-144.107-144.082z m-0.005 241.915c-53.94 0-97.813-43.889-97.813-97.833 0-53.95 43.879-97.833 97.813-97.833 53.96 0 97.858 43.889 97.858 97.833s-43.899 97.833-97.858 97.833z" fill="#ffffff" p-id="8724"></path></svg>