<svg t="1587372189608" class="icon" viewBox="0 0 1024 1024" version="1.1" xmlns="http://www.w3.org/2000/svg" p-id="3563" width="128" height="128"><path d="M201.06431 225.225067m38.203365 0l459.439161 0q38.203365 0 38.203365 38.203365l0 0q0 38.203365-38.203365 38.203365l-459.439161 0q-38.203365 0-38.203365-38.203365l0 0q0-38.203365 38.203365-38.203365Z" fill="#ffffff" p-id="3564"></path><path d="M201.06431 432.47208m38.203365 0l280.907096 0q38.203365 0 38.203365 38.203365l0 0q0 38.203365-38.203365 38.203365l-280.907096 0q-38.203365 0-38.203365-38.203365l0 0q0-38.203365 38.203365-38.203365Z" fill="#ffffff" p-id="3565"></path><path d="M906.45324 508.37942V121.10217c0-82.64911-35.706413-121.10217-112.113143-121.10217H128.403008C46.253288 0 31.271577 40.700317 31.271577 121.10217v781.79566C31.271577 985.54694 66.97799 1023.750305 143.38472 1023.750305h570.553523a33.958547 33.958547 0 1 0 0-67.667398H143.38472C106.180136 956.582297 98.68928 948.841746 98.68928 902.89783V121.10217v-20.225311c0-17.728359 0-24.96952 2.746647-28.964642s11.985369-4.494514 27.466471-4.494514h665.437699c38.45306 0 44.69544 7.490856 44.69544 53.684467v382.033651a27.466472 27.466472 0 0 0 0 4.494513 33.958547 33.958547 0 0 0 67.417703 3.995123z" fill="#ffffff" p-id="3566"></path><path d="M392.330831 861.698122a37.454279 37.454279 0 0 1-21.723483-67.917093l174.786638-124.847598a36.705194 36.705194 0 0 1 43.446964 0l149.817118 107.368934L930.174283 608.756889a37.454279 37.454279 0 1 1 49.93904 56.181419l-212.240917 187.271397a37.454279 37.454279 0 0 1-46.443307 2.496952l-153.063155-109.366496-153.063155 109.366496a36.954889 36.954889 0 0 1-22.971958 6.991465z" fill="#ffffff" p-id="3567"></path></svg>